<svg xmlns="http://www.w3.org/2000/svg" version="1.1" xmlns:xlink="http://www.w3.org/1999/xlink" xmlns:svgjs="http://svgjs.dev/svgjs" width="1440" height="560" preserveAspectRatio="none" viewBox="0 0 1440 560"><g mask="url(&quot;#SvgjsMask1039&quot;)" fill="none"><rect width="1440" height="560" x="0" y="0" fill="rgba(255, 160, 7, 1)"></rect><path d="M0,398.004C72.329,385.366,108.643,304.738,172.059,267.73C239.694,228.261,342.486,241.982,382.603,174.729C422.299,108.18,379.685,23.47,362.883,-52.175C347.299,-122.336,329.336,-190.809,288.305,-249.817C243.808,-313.81,196.151,-396.743,118.512,-403.615C38.865,-410.665,-9.514,-314.189,-83.004,-282.684C-143.998,-256.536,-219.442,-276.029,-272.398,-236.034C-330.106,-192.45,-376.27,-127.119,-384.164,-55.234C-391.987,16.012,-342.461,77.62,-314.066,143.429C-284.978,210.845,-272.628,289.227,-215.589,335.462C-156.26,383.553,-75.232,411.149,0,398.004" fill="#c57900"></path><path d="M1440 1057.606C1530.441 1042.923 1586.783 957.335 1659.673 901.818 1725.83 851.429 1804.188 816.94 1848.43 746.524 1896.286 670.357 1944.997 577.008 1917.5819999999999 491.334 1890.141 405.579 1776.239 387.541 1713.038 323.41200000000003 1655.602 265.132 1642.643 160.046 1565.162 133.73700000000002 1487.747 107.45100000000002 1413.487 182.337 1332.601 194.23399999999998 1233.1399999999999 208.863 1099.988 132.488 1037.612 211.32799999999997 974.0699999999999 291.64 1083.4940000000001 406.369 1083.741 508.778 1083.937 589.974 1024.455 663.278 1038.892 743.1800000000001 1055.32 834.097 1096.437 924.4549999999999 1169.1480000000001 981.453 1244.483 1040.508 1345.514 1072.946 1440 1057.606" fill="#ffb949"></path></g><defs><mask id="SvgjsMask1039"><rect width="1440" height="560" fill="#ffffff"></rect></mask></defs></svg>